<svg width="100%" viewBox="0 0 680 400" xmlns="http://www.w3.org/2000/svg" style="font-family:sans-serif;background:#fafafa">
<rect width="680" height="400" fill="#fafafa" rx="12"/>
<defs><marker id="a" viewBox="0 0 10 10" refX="8" refY="5" markerWidth="6" markerHeight="6" orient="auto-start-reverse"><path d="M2 1L8 5L2 9" fill="none" stroke="context-stroke" stroke-width="1.5" stroke-linecap="round" stroke-linejoin="round"/></marker></defs>
<text font-size="13" font-weight="600" x="340" y="28" text-anchor="middle" fill="#1a1a1a">Project 6 — NASA Space Data Pipeline (Delta Lake)</text>
<text font-size="11" fill="#888" x="28" y="85" text-anchor="middle">Source</text>
<text font-size="11" fill="#888" x="28" y="175" text-anchor="middle">Ingest</text>
<text font-size="11" fill="#888" x="28" y="255" text-anchor="middle">Lakehouse</text>
<text font-size="11" fill="#888" x="28" y="345" text-anchor="middle">Warehouse</text>
<line x1="55" y1="120" x2="645" y2="120" stroke="#e0e0e0" stroke-width="0.5" stroke-dasharray="4 3"/>
<line x1="55" y1="210" x2="645" y2="210" stroke="#e0e0e0" stroke-width="0.5" stroke-dasharray="4 3"/>
<line x1="55" y1="290" x2="645" y2="290" stroke="#e0e0e0" stroke-width="0.5" stroke-dasharray="4 3"/>
<rect x="62" y="52" width="140" height="52" rx="8" fill="#E6F1FB" stroke="#185FA5" stroke-width="0.5"/>
<text font-size="11" font-weight="600" x="132" y="73" text-anchor="middle" fill="#0C447C">NASA APOD</text>
<text font-size="10" x="132" y="90" text-anchor="middle" fill="#185FA5">daily since 1995</text>
<rect x="218" y="52" width="140" height="52" rx="8" fill="#E6F1FB" stroke="#185FA5" stroke-width="0.5"/>
<text font-size="11" font-weight="600" x="288" y="73" text-anchor="middle" fill="#0C447C">NASA NeoWs</text>
<text font-size="10" x="288" y="90" text-anchor="middle" fill="#185FA5">near-earth asteroids</text>
<rect x="374" y="52" width="140" height="52" rx="8" fill="#E6F1FB" stroke="#185FA5" stroke-width="0.5"/>
<text font-size="11" font-weight="600" x="444" y="73" text-anchor="middle" fill="#0C447C">NASA DONKI</text>
<text font-size="10" x="444" y="90" text-anchor="middle" fill="#185FA5">solar flares · storms</text>
<text font-size="10" fill="#888" x="575" y="70">free · DEMO_KEY</text>
<text font-size="10" fill="#888" x="575" y="85">1000 req/hr</text>
<line x1="132" y1="104" x2="200" y2="142" stroke="#185FA5" stroke-width="1" marker-end="url(#a)"/>
<line x1="288" y1="104" x2="290" y2="142" stroke="#185FA5" stroke-width="1" marker-end="url(#a)"/>
<line x1="444" y1="104" x2="380" y2="142" stroke="#185FA5" stroke-width="1" marker-end="url(#a)"/>
<rect x="62" y="142" width="520" height="46" rx="8" fill="#EEEDFE" stroke="#534AB7" stroke-width="0.5"/>
<text font-size="12" font-weight="600" x="322" y="162" text-anchor="middle" fill="#3C3489">Apache Kafka</text>
<text font-size="11" x="322" y="178" text-anchor="middle" fill="#534AB7">3 topics: nasa-apod · nasa-neo-asteroids · nasa-donki-spaceweather · GZIP</text>
<line x1="322" y1="188" x2="322" y2="218" stroke="#534AB7" stroke-width="1.5" marker-end="url(#a)"/>
<rect x="62" y="218" width="520" height="52" rx="8" fill="#EAF3DE" stroke="#3B6D11" stroke-width="0.5"/>
<text font-size="12" font-weight="600" x="322" y="238" text-anchor="middle" fill="#27500A">Delta Lake (S3) — ACID Lakehouse</text>
<text font-size="11" x="322" y="256" text-anchor="middle" fill="#3B6D11">MERGE upsert · time-travel · ZORDER optimize · VACUUM cleanup · partition by date</text>
<rect x="558" y="218" width="82" height="52" rx="6" fill="#FAEEDA" stroke="#854F0B" stroke-width="0.5"/>
<text font-size="11" font-weight="600" x="599" y="238" text-anchor="middle" fill="#633806">Airflow</text>
<text font-size="10" x="599" y="254" text-anchor="middle" fill="#854F0B">daily 05:00 WIB</text>
<line x1="322" y1="270" x2="322" y2="300" stroke="#3B6D11" stroke-width="1.5" marker-end="url(#a)"/>
<rect x="62" y="300" width="520" height="52" rx="8" fill="#E6F1FB" stroke="#185FA5" stroke-width="0.5"/>
<text font-size="12" font-weight="600" x="322" y="320" text-anchor="middle" fill="#0C447C">Google BigQuery</text>
<text font-size="11" x="322" y="338" text-anchor="middle" fill="#185FA5">apod_daily · neo_asteroids · donki_events  |  partitioned by date</text>
<rect x="180" y="366" width="140" height="22" rx="4" fill="#EAF3DE" stroke="#3B6D11" stroke-width="0.5"/>
<text font-size="10" x="250" y="381" text-anchor="middle" fill="#27500A">ACID + time-travel ✓</text>
<rect x="360" y="366" width="140" height="22" rx="4" fill="#E6F1FB" stroke="#185FA5" stroke-width="0.5"/>
<text font-size="10" x="430" y="381" text-anchor="middle" fill="#0C447C">3 NASA data streams</text>
</svg>
